<svg id="Layer_1" data-name="Layer 1" xmlns="http://www.w3.org/2000/svg" viewBox="0 0 986 241"><defs><style>.cls-1{fill:#333;}.cls-2{font-size:57px;font-family:Luminari-Regular, Luminari;}.cls-2,.cls-9{fill:#c6f;}.cls-3{letter-spacing:-0.01em;}.cls-4{letter-spacing:0em;}.cls-5{letter-spacing:-0.04em;}.cls-6{letter-spacing:0em;}.cls-7{letter-spacing:-0.02em;}.cls-8{fill:none;stroke:#c6f;stroke-miterlimit:10;stroke-width:6px;}</style></defs><title>Artboard 1</title><rect class="cls-1" x="-6" y="0.5" width="992.5" height="241"/><text class="cls-2" transform="translate(48.11 102.03)"><tspan class="cls-3">R<tspan class="cls-4" x="42.24" y="0">OTTEN </tspan></tspan><tspan x="-11.4" y="68.4">ANIMALS</tspan></text><text class="cls-2" transform="translate(396.5 94.03)">d<tspan class="cls-5" x="33.74" y="0">r</tspan><tspan x="56.89" y="0">eaming of the pu</tspan><tspan class="cls-5" x="499.37" y="0">r</tspan><tspan x="522.51" y="0">e </tspan><tspan class="cls-6" x="0" y="68.4">v</tspan><tspan class="cls-7" x="29.64" y="68.4">e</tspan><tspan x="54.72" y="68.4">getable kingdom</tspan></text><line class="cls-8" x1="352" y1="53.31" x2="352" y2="182.69"/><polygon class="cls-9" points="354.14 55.07 372.31 44.58 372.31 39.66 354.14 50.15 354.14 45.24 372.31 34.75 372.31 29.83 354.14 40.32 354.14 35.41 372.31 24.91 372.31 20 354.14 30.49 354.14 25.46 349.86 25.46 349.86 30.49 331.69 20 331.69 24.91 349.86 35.41 349.86 40.32 331.69 29.83 331.69 34.75 349.86 45.24 349.86 50.15 331.69 39.66 331.69 44.58 349.86 55.07 354.14 55.07"/><polygon class="cls-9" points="354.14 180.93 372.31 191.42 372.31 196.34 354.14 185.85 354.14 190.76 372.31 201.25 372.31 206.17 354.14 195.68 354.14 200.59 372.31 211.09 372.31 216 354.14 205.51 354.14 210.54 349.86 210.54 349.86 205.51 331.69 216 331.69 211.09 349.86 200.59 349.86 195.68 331.69 206.17 331.69 201.25 349.86 190.76 349.86 185.85 331.69 196.34 331.69 191.42 349.86 180.93 354.14 180.93"/></svg>